<?xml version="1.0" encoding="UTF-8"?>
<svg id="Layer_1" data-name="Layer 1" xmlns="http://www.w3.org/2000/svg" viewBox="0 0 678.95 687.37">
  <path d="m611.05,280c37.5,0,67.89,30.4,67.89,67.89v16.97c0,57.51-76.28,186.37-135.21,237.05l-.58.44v17.11c.01,35.53-27.37,65.06-62.8,67.73l-5.09.17H203.68c-37.5,0-67.89-30.4-67.89-67.89v-16.84l-2.21-1.8C73.84,550.05,4.79,432.29.24,371.01l-.24-6.14v-16.97c0-37.5,30.4-67.89,67.89-67.89h543.16Z"/>
  <path d="m533.13,171.05c-4.11.02-8.12-1.26-11.46-3.64-3.36-2.47-5.9-5.89-7.3-9.82l-7.41-22.83c-1.8-5.38-4.83-10.27-8.83-14.29-3.99-4-8.86-7.01-14.22-8.79l-23.22-7.55c-3.84-1.37-7.16-3.89-9.5-7.21-4.83-6.81-4.83-15.93,0-22.74,2.54-3.54,6.14-6.16,10.28-7.48l22.85-7.41c10.9-3.61,19.46-12.16,23.09-23.05l7.55-23.19c1.35-3.84,3.86-7.16,7.18-9.5,6.86-4.74,15.94-4.74,22.81,0,3.42,2.4,5.99,5.83,7.32,9.8l7.58,23.32c3.63,10.57,11.89,18.91,22.43,22.63l23.18,7.51c3.88,1.37,7.22,3.92,9.58,7.28,1.1,1.56,1.96,3.27,2.57,5.08,3.47,10.33-2.1,21.51-12.42,24.98l-22.82,7.42c-5.39,1.81-10.29,4.85-14.3,8.88-4.02,4.01-7.04,8.9-8.81,14.29l-7.52,23.1c-2.75,7.93-10.23,13.24-18.63,13.22m-109.34,85.52c-3.39-.03-6.69-1.11-9.45-3.09-2.87-2.03-5.03-4.91-6.18-8.23l-5.11-15.68c-1.1-3.26-2.93-6.23-5.35-8.67-2.42-2.43-5.39-4.25-8.65-5.32l-15.9-5.19c-4.96-1.71-8.81-5.68-10.37-10.69-2.69-8.68,2.16-17.9,10.84-20.6l15.73-5.13c6.6-2.19,11.79-7.36,14.01-13.95l5.19-15.93c1.11-3.23,3.22-6.03,6.02-8,1.36-.97,2.85-1.73,4.44-2.25,8.63-2.84,17.94,1.85,20.78,10.48l5.08,15.68c2.14,6.53,7.2,11.69,13.67,13.97l15.97,5.21c1.49.52,2.89,1.24,4.17,2.16,7.4,5.28,9.11,15.56,3.82,22.96-2.02,2.88-4.91,5.04-8.24,6.18l-15.71,5.08c-3.27,1.1-6.24,2.94-8.69,5.37-2.43,2.44-4.25,5.41-5.31,8.69l-5.21,15.93c-2.31,6.62-8.57,11.05-15.58,11.02"/>
</svg>