<svg width="100" height="100" viewBox="0 0 100 100" fill="none" xmlns="http://www.w3.org/2000/svg">
<g clip-path="url(#clip0_416_72)">
<path d="M56.7882 18.75C41.1684 18.75 27.5278 29.4473 19.9357 38.5996L4.77428 25.6992C2.66838 23.9063 -0.475721 25.8164 0.0624732 28.5625L4.26039 50L0.0607371 71.4395C-0.477457 74.1855 2.66664 76.0937 4.77254 74.3027L19.934 61.4023C27.526 70.5527 41.1684 81.25 56.7882 81.25C80.6528 81.25 100 56.25 100 50C100 43.75 80.6528 18.75 56.7882 18.75ZM71.967 54.6875C69.6666 54.6875 67.8003 52.5879 67.8003 50C67.8003 47.4102 69.6666 45.3125 71.967 45.3125C74.2691 45.3125 76.1337 47.4102 76.1337 50C76.1337 52.5879 74.2673 54.6875 71.967 54.6875Z" fill="#009D00"/>
</g>
<defs>
<clipPath id="clip0_416_72">
<rect width="100" height="100" fill="white"/>
</clipPath>
</defs>
</svg>
