<svg width="100" height="100" viewBox="0 0 100 100" fill="none" xmlns="http://www.w3.org/2000/svg">
<path d="M52.1399 11.0599C51.5496 10.5352 50.7872 10.2454 49.9974 10.2454C49.2076 10.2454 48.4452 10.5352 47.8549 11.0599C44.7831 13.782 42.3331 17.1333 40.6715 20.8863C39.0098 24.6392 38.1754 28.7058 38.2249 32.8099C38.2298 33.24 38.3456 33.6615 38.5611 34.0338C38.7765 34.4061 39.0844 34.7164 39.4549 34.9349C42.695 36.851 45.6237 39.2503 48.1399 42.0499C48.3743 42.3101 48.6608 42.5182 48.9808 42.6606C49.3008 42.8031 49.6472 42.8767 49.9974 42.8767C50.3477 42.8767 50.694 42.8031 51.014 42.6606C51.334 42.5182 51.6205 42.3101 51.8549 42.0499C54.3719 39.2538 57.3005 36.8579 60.5399 34.9449C60.9095 34.7258 61.2164 34.4152 61.4309 34.043C61.6455 33.6707 61.7605 33.2495 61.7649 32.8199C61.8158 28.7154 60.9825 24.648 59.3217 20.8942C57.6609 17.1403 55.2115 13.788 52.1399 11.0649M15.0799 61.0449C15.0408 60.6093 15.0884 60.1702 15.2197 59.753C15.3511 59.3358 15.5638 58.9487 15.8454 58.6141C16.1271 58.2794 16.4722 58.0039 16.8608 57.8032C17.2495 57.6025 17.674 57.4808 18.1099 57.4449C24.7669 56.8879 31.4303 58.4414 37.1545 61.8851C42.8788 65.3288 47.3731 70.4878 49.9999 76.6299C52.6256 70.4877 57.1189 65.3283 62.8422 61.8837C68.5655 58.4392 75.2282 56.8844 81.8849 57.4399C83.7149 57.5899 85.0849 59.1999 84.9149 61.0399C84.1939 68.9533 80.5408 76.3114 74.6729 81.6696C68.805 87.0278 61.1461 89.999 53.1999 89.9999H50.8749C50.5777 89.9974 50.282 89.9571 49.9949 89.8799C49.7062 89.9575 49.4088 89.9979 49.1099 89.9999H46.7849C38.8396 89.9978 31.1819 87.026 25.3151 81.6679C19.4482 76.3099 15.7959 68.9525 15.0749 61.0399M49.9999 54.1299C47.3739 47.9868 42.8799 42.8268 37.1556 39.3822C31.4313 35.9376 24.7675 34.3833 18.1099 34.9399C17.674 34.9758 17.2495 35.0975 16.8608 35.2982C16.4722 35.4989 16.1271 35.7744 15.8454 36.1091C15.5638 36.4437 15.3511 36.8308 15.2197 37.248C15.0884 37.6652 15.0408 38.1043 15.0799 38.5399C15.4741 42.9268 16.7767 47.1837 18.9049 51.0399C19.1196 51.4281 19.4338 51.7522 19.8151 51.9789C20.1965 52.2056 20.6313 52.3268 21.0749 52.3299C26.131 52.3742 31.1238 53.4599 35.7417 55.5194C40.3595 57.5788 44.5035 60.5678 47.9149 64.2999C48.1767 64.5857 48.5013 64.8068 48.8631 64.9457C49.225 65.0845 49.6141 65.1373 49.9999 65.0999C50.3849 65.1365 50.7731 65.0833 51.134 64.9445C51.4949 64.8057 51.8187 64.585 52.0799 64.2999C55.4914 60.5678 59.6353 57.5788 64.2532 55.5194C68.871 53.4599 73.8638 52.3742 78.9199 52.3299C79.364 52.3263 79.7992 52.2044 80.1806 51.9768C80.562 51.7492 80.8759 51.4241 81.0899 51.0349C83.2175 47.1802 84.5201 42.9251 84.9149 38.5399C84.954 38.1043 84.9065 37.6652 84.7751 37.248C84.6437 36.8308 84.4311 36.4437 84.1494 36.1091C83.8677 35.7744 83.5227 35.4989 83.134 35.2982C82.7454 35.0975 82.3208 34.9758 81.8849 34.9399C75.2282 34.3844 68.5655 35.9392 62.8422 39.3837C57.1189 42.8283 52.6256 47.9877 49.9999 54.1299Z" fill="#FFD700"/>
</svg>
