<svg width="100" height="100" viewBox="0 0 100 100" fill="none" xmlns="http://www.w3.org/2000/svg">
<path d="M32.188 85.3215C35.4677 86.4638 39.3624 87.2154 43.872 87.5762V95.8984H32.188V85.3215ZM57.1958 95.8984H68.8798V85.2395C65.3951 86.3887 61.5004 87.1505 57.1958 87.525V95.8984ZM49.923 4.10156C44.6367 4.10156 40.3505 9.67715 40.3505 16.5541C40.3505 23.4313 44.6367 29.0068 49.923 29.0068C55.2093 29.0068 59.4957 23.4313 59.4957 16.5541C59.4957 9.67695 55.2095 4.10156 49.923 4.10156ZM93.0246 60.0268C93.0246 42.5008 79.7253 27.6232 61.6359 23.0727C61.0753 24.6113 60.2853 26.0563 59.2927 27.3588C56.8865 30.4908 53.4712 32.2783 49.9251 32.2783C46.3791 32.2783 42.9558 30.4826 40.5576 27.3588C39.5723 26.0656 38.7866 24.6318 38.2269 23.1055C20.2029 27.6949 6.97534 42.5438 6.97534 60.0268H13.33C13.3204 55.5307 14.3873 51.0977 16.4416 47.0984C16.0222 49.0764 15.8106 51.0927 15.8103 53.1146C15.8103 70.4766 21.7937 84.5443 50.0033 84.5443C79.9509 84.5443 84.1962 70.4662 84.1962 53.1045C84.1962 51.0853 83.9845 49.0716 83.5648 47.0965C85.6172 51.0969 86.6821 55.5306 86.6703 60.0268H93.0246Z" fill="#FF0000"/>
</svg>
