<svg width="100" height="100" viewBox="0 0 100 100" fill="none" xmlns="http://www.w3.org/2000/svg">
<g clip-path="url(#clip0_416_69)">
<path d="M89.9993 40.7349C95.5225 40.7349 99.9985 45.1575 99.9985 50.6116V53.0805C99.9985 61.4471 88.7635 80.194 80.084 87.567L79.9985 87.631V90.1202C80 95.2892 75.9673 99.5853 70.749 99.9737L69.9993 99.9984H29.9993C24.476 99.9984 20 95.5758 20 90.1217V87.6717L19.6745 87.4099C10.8756 80.0223 0.705501 62.8903 0.0353487 53.9752L0 53.0819V50.6131C0 45.1575 4.4775 40.7363 9.99926 40.7363H89.9993V40.7349Z" fill="#F0B030"/>
<path d="M78.5228 24.8847C77.9175 24.8876 77.3268 24.7014 76.8349 24.3551C76.34 23.9958 75.9659 23.4983 75.7597 22.9265L74.6683 19.6052C74.4032 18.8225 73.9569 18.1111 73.3678 17.5262C72.7801 16.9443 72.0628 16.5064 71.2734 16.2474L67.8534 15.149C67.2878 14.9497 66.7988 14.5831 66.4542 14.1001C65.7428 13.1094 65.7428 11.7826 66.4542 10.7919C66.8283 10.2768 67.3585 9.89568 67.9683 9.70365L71.3338 8.62563C72.9392 8.10044 74.2 6.85656 74.7346 5.27226L75.8466 1.89854C76.0455 1.33988 76.4151 0.856884 76.9041 0.516456C77.9145 -0.173129 79.2519 -0.173129 80.2637 0.516456C80.7674 0.865613 81.146 1.36462 81.3419 1.94218L82.4583 5.33482C82.9929 6.87257 84.2095 8.08589 85.7619 8.62708L89.176 9.71965C89.7475 9.91896 90.2394 10.2899 90.587 10.7788C90.749 11.0057 90.8757 11.2545 90.9655 11.5178C91.4766 13.0206 90.6562 14.6471 89.1363 15.152L85.7752 16.2314C84.9813 16.4947 84.2596 16.937 83.669 17.5233C83.0769 18.1067 82.6321 18.8181 82.3714 19.6022L81.2638 22.9629C80.8588 24.1166 79.7571 24.8891 78.5199 24.8862M62.4156 37.3278C61.9163 37.3234 61.4302 37.1663 61.0237 36.8782C60.601 36.5829 60.2829 36.1639 60.1135 35.6809L59.3609 33.3998C59.1989 32.9255 58.9293 32.4934 58.5729 32.1384C58.2165 31.7849 57.779 31.5201 57.2989 31.3645L54.957 30.6094C54.2265 30.3606 53.6594 29.7831 53.4297 29.0542C53.0335 27.7914 53.7478 26.4501 55.0262 26.0573L57.343 25.311C58.3151 24.9924 59.0795 24.2402 59.4065 23.2815L60.1709 20.964C60.3344 20.4941 60.6452 20.0867 61.0576 19.8001C61.2579 19.659 61.4774 19.5484 61.7116 19.4728C62.9826 19.0596 64.3539 19.7419 64.7722 20.9974L65.5204 23.2786C65.8356 24.2286 66.5808 24.9793 67.5338 25.311L69.8859 26.0689C70.1054 26.1446 70.3116 26.2493 70.5001 26.3832C71.59 27.1513 71.8419 28.6469 71.0628 29.7234C70.7652 30.1424 70.3396 30.4567 69.8491 30.6225L67.5353 31.3616C67.0536 31.5216 66.6162 31.7893 66.2553 32.1428C65.8974 32.4978 65.6294 32.9299 65.4732 33.407L64.7059 35.7246C64.3657 36.6877 63.4436 37.3321 62.4112 37.3278" fill="#F0B030"/>
</g>
<defs>
<clipPath id="clip0_416_69">
<rect width="100" height="100" fill="white"/>
</clipPath>
</defs>
</svg>
