<svg width="100" height="120" viewBox="0 0 100 120" fill="none" xmlns="http://www.w3.org/2000/svg">
<path d="M100 77.4971C100 104.198 83.6375 115.914 70.9938 119.861C68.2938 120.702 66.525 117.546 68.1375 115.217C73.6375 107.279 80 95.1681 80 83.7786C80 71.5356 69.725 57.0838 61.7 48.1667C59.8687 46.1335 56.6687 47.4764 56.5687 50.2249C56.2375 59.324 54.8062 71.4854 48.6437 81.0237C48.4254 81.3801 48.1242 81.678 47.766 81.8917C47.4078 82.1055 47.0033 82.2288 46.5871 82.251C46.171 82.2732 45.7557 82.1937 45.377 82.0193C44.9982 81.8449 44.6672 81.5808 44.4125 81.2496C42.4875 78.8023 40.5625 75.7839 38.6375 73.3931C37.6 72.1129 35.725 72.0941 34.5312 73.2299C29.8625 77.6665 23.3312 84.5818 23.3312 93.1851C23.3312 99.0211 25.5812 105.139 28.125 110.065C29.525 112.764 27.0375 116.027 24.35 114.609C13.2062 108.748 0 96.8499 0 77.4971C0 57.7552 26.9375 30.4015 37.225 4.56013C38.85 0.48123 43.85 -1.43272 47.3312 1.22798C68.3937 17.3428 100 48.493 100 77.4971Z" fill="url(#paint0_linear_416_78)"/>
<defs>
<linearGradient id="paint0_linear_416_78" x1="50" y1="0" x2="50" y2="120" gradientUnits="userSpaceOnUse">
<stop stop-color="#FF9900"/>
<stop offset="1" stop-color="#FFD700"/>
</linearGradient>
</defs>
</svg>
